<?xml version="1.0" encoding="utf-8"?>
<!-- Generator: Adobe Illustrator 16.0.3, SVG Export Plug-In . SVG Version: 6.00 Build 0)  -->
<!DOCTYPE svg PUBLIC "-//W3C//DTD SVG 1.1//EN" "http://www.w3.org/Graphics/SVG/1.1/DTD/svg11.dtd">
<svg version="1.1" id="Layer_1" xmlns="http://www.w3.org/2000/svg" xmlns:xlink="http://www.w3.org/1999/xlink" x="0px" y="0px"
	 width="842px" height="818px" viewBox="0 0 842 818" enable-background="new 0 0 842 818" xml:space="preserve">
<g>
	<path fill-rule="evenodd" clip-rule="evenodd" fill="none" stroke="#FFFFFF" stroke-miterlimit="10" d="M808.4,680.96
		c0,2.721,0,5.44,0,8.16c-0.135,0.276-0.356,0.542-0.393,0.83c-0.772,6.209-3.851,11.125-8.62,14.993
		c-5.979,4.848-12.884,7.357-20.582,7.433c-7.485,0.073-13.998-2.355-18.952-8.17c-4.562-5.352-8.011-11.349-10.035-18.123
		c-2.272-7.603-3.724-15.38-4.741-23.229c-1.428-11.019-2.875-22.039-3.964-33.094c-1.159-11.772-1.959-23.581-2.822-35.381
		c-0.467-6.38-0.717-12.775-1.104-19.161c-0.741-12.212-1.627-24.416-2.231-36.635c-0.517-10.461-1-20.937-1.002-31.406
		c-0.004-15.672,0.103-31.357,0.769-47.011c0.591-13.892,1.792-27.768,3.125-41.611c1.088-11.292,2.757-22.528,4.197-33.786
		c0.393-3.071,0.893-6.129,1.386-9.479c-1.08,0.369-1.895,0.612-2.683,0.92c-20.179,7.901-40.684,14.849-61.441,21.056
		c-37.326,11.162-75.264,19.744-113.537,26.909c-0.521,0.097-1.02,0.312-1.611,0.498c0.051,0.513,0.078,0.901,0.13,1.287
		c0.569,4.197,1.162,8.393,1.709,12.593c1.197,9.194,2.412,18.386,3.544,27.589c1.405,11.424,2.796,22.852,4.077,34.29
		c1.112,9.931,2.117,19.874,3.069,29.82c1.113,11.619,2.203,23.242,3.144,34.877c0.825,10.201,1.536,20.413,2.108,30.632
		c0.83,14.85,1.775,29.702,2.153,44.566c0.498,19.585,0.538,39.182,0.674,58.774c0.032,4.627,0.092,9.322-0.605,13.873
		c-2.517,16.404-19.627,26.847-35.323,21.655c-9.434-3.119-15.334-9.851-18.309-19.181c-6.143-19.266-12.659-38.397-19.711-57.351
		c-13.825-37.161-30.27-73.099-50.189-107.404c-15.576-26.826-32.883-52.444-53.832-75.432
		c-6.515-7.149-13.381-13.979-20.042-20.996c-1.056-1.113-2.102-1.422-3.607-1.115c-2.895,0.592-5.831,0.98-8.753,1.433
		c-14.216,2.2-28.432,4.397-42.649,6.587c-3.299,0.508-6.603,0.983-10.059,1.496c0,1.1-0.029,2.044,0.004,2.986
		c0.424,12.147,0.946,24.292,1.266,36.443c0.385,14.629,0.747,29.262,0.854,43.895c0.161,21.993,0.339,43.991,0.053,65.981
		c-0.293,22.546-1.063,45.088-1.77,67.627c-0.345,11.029-0.944,22.052-1.566,33.069c-0.662,11.736-1.439,23.466-2.257,35.191
		c-0.534,7.656-1.065,15.319-1.898,22.946c-0.775,7.103-3.199,13.689-7.518,19.461c-4.022,5.375-9.255,8.739-16.083,9.327
		c-0.453,0.039-0.889,0.266-1.333,0.404c-2.24,0-4.48,0-6.72,0c-0.77-0.169-1.534-0.372-2.31-0.501
		c-9.672-1.606-16.604-6.7-20.302-15.921c-1.535-3.829-2.207-7.825-2.404-11.93c-0.061-1.262-0.229-2.552-0.583-3.76
		c-2.462-8.42-1.467-16.272,3.614-23.536c0.473-0.675,0.799-1.579,0.854-2.4c0.671-9.894,1.356-19.788,1.883-29.689
		c0.624-11.74,1.219-23.483,1.609-35.232c0.662-19.901,1.481-39.807,1.639-59.716c0.224-28.231,0.09-56.471-0.239-84.702
		c-0.239-20.47-1.04-40.934-1.603-61.399c-0.017-0.596-0.176-1.188-0.273-1.812c-0.594,0-0.99-0.032-1.381,0.005
		c-4.219,0.4-8.433,0.858-12.655,1.211c-17.059,1.422-34.144,2.442-51.258,2.819c-24.663,0.542-49.254-0.367-73.682-4.125
		c-11.547-1.776-22.97-4.099-34.104-7.698c-12.315-3.98-24.019-9.224-34.62-16.749c-18.512-13.141-29.091-31.027-32.055-53.49
		c-0.144-1.09-0.562-2.144-0.852-3.215c0-3.52,0-7.04,0-10.56c0.303-1.059,0.669-2.104,0.896-3.179
		c0.478-2.265,0.763-4.576,1.338-6.813c3.63-14.118,11.74-25.243,23.128-34.083c10.334-8.021,22.163-12.971,34.684-16.378
		c11.371-3.095,23.005-4.683,34.701-5.924c12.827-1.362,25.69-1.699,38.57-1.515c17.283,0.246,34.521,1.334,51.663,3.557
		c12.915,1.675,25.782,3.709,38.667,5.607c2.652,0.391,5.288,0.89,8.037,1.357c0-0.995,0.05-1.703-0.008-2.402
		c-0.909-11.076-1.817-22.152-2.756-33.225c-0.662-7.807-1.349-15.612-2.061-23.415c-0.886-9.713-1.796-19.424-2.719-29.133
		c-0.84-8.834-1.694-17.667-2.573-26.497s-1.788-17.657-2.696-26.483c-0.851-8.271-1.701-16.541-2.581-24.808
		c-1.033-9.697-2.096-19.392-3.151-29.086c-1.021-9.377-2.034-18.755-3.076-28.13c-1.051-9.454-2.129-18.905-3.201-28.356
		c-1.018-8.975-1.941-17.962-3.103-26.919c-0.77-5.936,0.457-11.295,3.876-16.138c4.269-6.047,10.074-9.938,17.194-11.902
		c1.062-0.292,2.113-0.622,3.17-0.935c2.24,0,4.48,0,6.72,0c0.743,0.234,1.477,0.503,2.23,0.697
		c11.368,2.923,18.625,9.892,20.86,21.566c0.87,4.544,1.305,9.175,1.845,13.778c1.071,9.131,2.08,18.27,3.111,27.406
		c1.049,9.294,2.109,18.588,3.138,27.885c1.038,9.376,2.048,18.756,3.062,28.135c1.074,9.936,2.153,19.87,3.204,29.808
		c0.874,8.269,1.717,16.541,2.562,24.813c0.91,8.908,1.826,17.816,2.702,26.728c0.883,8.992,1.734,17.986,2.575,26.982
		c0.923,9.871,1.839,19.743,2.722,29.618c0.72,8.044,1.406,16.091,2.071,24.14c0.928,11.236,1.824,22.476,2.732,33.714
		c0.308,3.813,0.611,7.625,0.909,11.345c0.802,0.377,1.375,0.657,1.956,0.918c21.443,9.623,41.748,21.259,60.869,34.905
		c8.197,5.85,16.07,12.155,24.05,18.306c1.077,0.831,2,1.329,3.449,0.999c2.254-0.513,4.574-0.74,6.866-1.081
		c12.254-1.821,24.514-3.609,36.762-5.468c15.33-2.327,30.651-4.707,45.975-7.077c2.582-0.399,5.152-0.865,7.862-1.323
		c-0.104-1.012-0.152-1.799-0.271-2.576c-0.718-4.741-1.446-9.481-2.181-14.22c-2.141-13.822-4.265-27.647-6.436-41.464
		c-2.145-13.659-4.351-27.309-6.507-40.966c-2.169-13.737-4.326-27.475-6.46-41.217c-2.183-14.059-4.378-28.115-6.479-42.186
		c-2.043-13.675-4.015-27.362-5.943-41.054c-1.905-13.534-3.786-27.073-5.552-40.626c-1.663-12.762-3.165-25.544-4.734-38.319
		c-0.511-4.157,0.1-8.146,1.955-11.901c3.228-6.526,8.431-10.942,14.994-13.889c14.995-6.731,33.429,2.053,36.954,18.561
		c0.732,3.431,1.133,6.938,1.57,10.425c1.531,12.215,2.916,24.449,4.536,36.651c1.905,14.341,3.934,28.667,6.024,42.981
		c2.716,18.585,5.491,37.162,8.343,55.727c2.584,16.826,5.313,33.63,7.964,50.446c2.638,16.737,5.272,33.475,7.884,50.216
		c2.39,15.32,4.744,30.646,7.12,45.968c0.399,2.576,0.823,5.148,1.252,7.825c0.796-0.08,1.349-0.091,1.884-0.195
		c26.912-5.232,53.677-11.12,80.188-18.127c31.246-8.259,61.976-18.091,91.958-30.198c12.237-4.942,24.205-10.48,36.016-16.36
		c4.642-2.311,9.458-3.83,14.688-3.959c12.416-0.308,23.367,7.813,26.576,19.774c0.303,1.128,0.553,2.271,0.827,3.408
		c0,2.72,0,5.44,0,8.16c-0.269,1.227-0.53,2.455-0.806,3.68c-2.05,9.121-4.212,18.219-6.13,27.368
		c-3.067,14.634-5.65,29.366-7.328,44.221c-1.463,12.946-2.532,25.94-3.597,38.928c-1.209,14.753-1.709,29.551-1.677,44.346
		c0.032,15.032,0.444,30.067,0.947,45.094c0.289,8.627,1.072,17.238,1.666,25.854c0.648,9.411,1.652,18.793,1.709,28.251
		c0.035,5.909,0.503,11.827,1.016,17.721c0.963,11.071,1.932,22.146,3.22,33.184c0.88,7.533,2.307,15.002,3.486,22.501
		c0.216,1.375,0.82,2.516,1.717,3.608c2.416,2.945,4.032,6.326,4.972,10.018C807.907,678.479,808.135,679.725,808.4,680.96z
		 M262.016,377.818c-1.504-0.418-2.867-0.837-4.249-1.174c-14.068-3.425-28.32-5.848-42.665-7.753
		c-13.559-1.802-27.18-2.979-40.835-3.662c-17.026-0.852-34.049-0.853-51.042,0.81c-10.309,1.008-20.371,3.151-30.107,6.677
		c-3.689,1.336-7.121,3.239-10.007,6.002c-1.047,1.002-1.645,2.172-1.648,3.596c-0.012,5.222,1.361,9.941,5.111,13.772
		c4.792,4.896,10.617,8.258,16.907,10.691c12.132,4.693,24.789,7.483,37.659,9.111c15.086,1.908,30.27,2.486,45.475,2.562
		c22.491,0.111,44.915-1.173,67.314-3.033c3.326-0.276,6.644-0.648,10.284-1.009C263.478,402.146,262.751,390.054,262.016,377.818z
		 M451.571,442.834c2.157,2.587,4.008,4.78,5.829,6.997c1.828,2.224,3.642,4.46,5.436,6.713c1.743,2.188,3.469,4.394,5.176,6.611
		c1.756,2.282,3.495,4.576,5.213,6.887c1.718,2.31,3.412,4.638,5.092,6.976s3.343,4.688,4.985,7.052
		c1.644,2.363,3.269,4.74,4.873,7.131c1.559,2.323,3.095,4.663,4.616,7.012c1.565,2.416,3.112,4.844,4.645,7.279
		c1.532,2.437,3.054,4.881,4.551,7.339s2.971,4.931,4.432,7.41s2.907,4.968,4.334,7.468c1.387,2.43,2.754,4.872,4.106,7.321
		c1.391,2.519,2.741,5.062,4.135,7.579c1.342,2.425,2.491,4.967,4.208,7.213c-3.15-38.785-7.709-77.332-13.008-115.958
		C490.656,436.853,471.339,439.81,451.571,442.834z M318.895,407.844c2.047-0.327,3.75-0.599,5.452-0.87
		c0.032-0.151,0.064-0.303,0.096-0.454c-1.801-1.03-3.602-2.061-5.548-3.174C318.895,404.988,318.895,406.243,318.895,407.844z"/>
	<path fill-rule="evenodd" clip-rule="evenodd" fill="none" stroke="#FFFFFF" stroke-miterlimit="10" d="M721.438,148.887
		c14.751,0.179,27.386,12.323,27.261,27.805c-0.122,15.314-12.979,27.55-28.287,27.22c-14.972-0.323-27.109-13.136-26.757-28.245
		C693.999,160.896,706.753,148.603,721.438,148.887z"/>
</g>
</svg>
